<svg id="Capa_1" enable-background="new 0 0 511.997 511.997" height="512" viewBox="0 0 511.997 511.997" width="512" xmlns="http://www.w3.org/2000/svg"><g><path d="m445.492 195.329c-4.143 0-7.5 3.357-7.5 7.5v21.995c0 2.53-2.059 4.589-4.59 4.589h-267.909c-4.143 0-7.5 3.357-7.5 7.5s3.357 7.5 7.5 7.5h256.269c1.289 9.932 1.943 20.031 1.943 30.09 0 66.01-28.296 129.073-77.631 173.021-3.094 2.756-3.367 7.496-.612 10.589 1.482 1.664 3.538 2.512 5.604 2.512 1.774 0 3.557-.626 4.985-1.899 52.528-46.792 82.654-113.938 82.654-184.223 0-10.16-.636-20.358-1.873-30.41 9.169-1.629 16.16-9.639 16.16-19.269v-21.995c0-4.143-3.357-7.5-7.5-7.5z"/><path d="m371.694 82.914h-107.933c-.953-9.432-3.286-26.895-8.578-44.413l29.837-6.121c4.058-.832 6.673-4.796 5.84-8.854-.832-4.059-4.805-6.673-8.854-5.84l-31.886 6.542c-3.265-7.86-7.258-15.26-12.142-21.398-2.58-3.242-7.299-3.777-10.539-1.199-3.241 2.579-3.778 7.298-1.199 10.539 4.953 6.225 8.873 14.216 11.968 22.711.093.331.208.649.342.957 6.167 17.344 8.956 36.571 10.107 47.076h-108.354c-44.828 0-81.299 36.471-81.299 81.299v60.61c0 10.802 8.788 19.589 19.59 19.589h.158c-1.211 9.949-1.834 20.039-1.834 30.09 0 54.702 17.532 106.512 50.702 149.829 32.113 41.937 77.621 72.968 128.142 87.377.672.192 1.364.288 2.057.288s1.386-.096 2.059-.288c24.675-7.042 48.047-17.902 69.467-32.279 3.439-2.309 4.356-6.968 2.048-10.407-2.309-3.44-6.971-4.355-10.407-2.048-19.519 13.102-40.76 23.092-63.166 29.713-46.618-13.779-88.56-42.65-118.289-81.476-31.147-40.677-47.611-89.333-47.611-140.709 0-10.058.655-20.157 1.943-30.09h38.641c4.143 0 7.5-3.357 7.5-7.5s-3.357-7.5-7.5-7.5h-53.91c-2.531 0-4.59-2.059-4.59-4.589v-60.61c0-36.558 29.741-66.299 66.299-66.299h24.849c-18.377 13.051-31.137 33.597-33.699 57.575-.439 4.119 2.543 7.814 6.661 8.255 4.142.432 7.814-2.544 8.255-6.661 3.603-33.732 31.938-59.169 65.911-59.169h24.941c-18.784 13.316-31.288 34.154-33.79 57.575-.439 4.119 2.543 7.814 6.661 8.255.271.028.54.043.806.043 3.785 0 7.038-2.856 7.449-6.704 2.459-23.027 16.779-43.004 37.651-52.843 20.871 9.839 35.191 29.815 37.651 52.843.439 4.117 4.129 7.093 8.255 6.661 4.119-.44 7.101-4.136 6.661-8.255-2.503-23.421-15.007-44.259-33.79-57.575h24.941c33.973 0 62.309 25.437 65.911 59.169.411 3.848 3.664 6.704 7.449 6.704.266 0 .535-.015.806-.043 4.118-.44 7.101-4.136 6.661-8.255-2.562-23.979-15.322-44.524-33.699-57.575h24.849c36.558 0 66.299 29.741 66.299 66.299v5.625c0 4.143 3.357 7.5 7.5 7.5s7.5-3.357 7.5-7.5v-5.625c0-44.828-36.47-81.299-81.298-81.299z"/><path d="m205.491 400.664c-1.673-2.769-5.022-4.233-8.313-3.377-4.009 1.045-6.411 5.142-5.366 9.149 2.094 8.03 7.335 13.019 13.679 13.019 6.346 0 11.586-4.989 13.678-13.02 1.044-4.009-1.359-8.104-5.367-9.148-3.294-.858-6.639.608-8.311 3.377z"/><path d="m240.349 430.337c-1.672-2.768-5.017-4.233-8.312-3.377-4.008 1.044-6.411 5.14-5.367 9.148 2.092 8.03 7.332 13.02 13.678 13.02 6.344 0 11.585-4.988 13.679-13.019 1.045-4.008-1.357-8.104-5.366-9.149-3.292-.857-6.64.608-8.312 3.377z"/><path d="m361.331 293.914c6.344 0 11.585-4.988 13.679-13.019 1.045-4.008-1.357-8.104-5.366-9.149-3.291-.857-6.64.608-8.312 3.377-1.672-2.768-5.018-4.234-8.312-3.377-4.008 1.044-6.411 5.14-5.367 9.148 2.092 8.03 7.333 13.02 13.678 13.02z"/><path d="m311.332 302.277c-1.672-2.768-5.022-4.234-8.311-3.377-4.009 1.044-6.412 5.139-5.368 9.147 2.091 8.031 7.332 13.021 13.678 13.021 6.345 0 11.586-4.988 13.679-13.019 1.044-4.009-1.358-8.104-5.366-9.149-3.296-.859-6.641.608-8.312 3.377z"/><path d="m160.077 301.746c-3.294-.857-6.639.608-8.311 3.377-1.671-2.768-5.018-4.232-8.311-3.377-4.008 1.044-6.411 5.14-5.367 9.148 2.092 8.03 7.332 13.02 13.678 13.02s11.586-4.989 13.678-13.02c1.044-4.009-1.359-8.105-5.367-9.148z"/></g></svg>